<svg width="15" height="16" viewBox="0 0 15 16" fill="none" xmlns="http://www.w3.org/2000/svg">
<g clip-path="url(#clip0_471_4030)">
<path fill-rule="evenodd" clip-rule="evenodd" d="M5.85861 12.9724C6.50548 12.9724 7.03125 13.4982 7.03125 14.1451C7.03125 14.7919 6.50548 15.3162 5.85861 15.3162C5.21174 15.3162 4.6875 14.7919 4.6875 14.1451C4.6875 13.4982 5.21174 12.9724 5.85861 12.9724Z" fill="#665F5F"/>
<path fill-rule="evenodd" clip-rule="evenodd" d="M12.011 12.9724C12.6579 12.9724 13.1837 13.4982 13.1837 14.1451C13.1837 14.7919 12.6579 15.3162 12.011 15.3162C11.3642 15.3162 10.8384 14.7919 10.8384 14.1451C10.8384 13.4982 11.3642 12.9724 12.011 12.9724Z" fill="#665F5F"/>
<path d="M1.71875 2.81616L3.01875 3.04116L4.55812 10.2118C4.60687 10.7962 5.095 11.2449 5.68125 11.2449H11.5638C12.1238 11.2449 12.5988 10.8337 12.6794 10.2787L14.0626 5.47234C14.1357 4.96671 13.7438 4.51421 13.2332 4.51421L4.165 5.22179" stroke="#665F5F" stroke-width="1.2" stroke-linecap="round" stroke-linejoin="round"/>
</g>
<defs>
<clipPath id="clip0_471_4030">
<rect width="15" height="15" fill="white" transform="translate(0 0.784912)"/>
</clipPath>
</defs>
</svg>
