<svg width="26" height="26" viewBox="0 0 26 26" fill="none" xmlns="http://www.w3.org/2000/svg">
<path d="M4.79383 0.302612C2.28973 0.302612 0.273438 2.31891 0.273438 4.82301V20.5388C0.273438 23.0429 2.28973 25.0592 4.79383 25.0592H13.3116V15.3809H10.7524V11.8964H13.3116V8.91944C13.3116 6.58057 14.8237 4.43309 18.307 4.43309C19.7174 4.43309 20.7603 4.56848 20.7603 4.56848L20.6782 7.82243C20.6782 7.82243 19.6146 7.81238 18.454 7.81238C17.1979 7.81238 16.9965 8.39114 16.9965 9.35194V11.8964H20.778L20.6132 15.3809H16.9965V25.0592H20.5096C23.0137 25.0592 25.03 23.0429 25.03 20.5388V4.82303C25.03 2.31893 23.0137 0.302637 20.5096 0.302637H4.79381L4.79383 0.302612Z" fill="#665F5F"/>
</svg>
