<svg width="26" height="26" viewBox="0 0 26 26" fill="none" xmlns="http://www.w3.org/2000/svg">
<path d="M12.9971 8.5539C10.7242 8.5539 8.86928 10.4088 8.86928 12.6817C8.86928 14.9546 10.7242 16.8095 12.9971 16.8095C15.27 16.8095 17.1249 14.9546 17.1249 12.6817C17.1249 10.4088 15.27 8.5539 12.9971 8.5539ZM25.3773 12.6817C25.3773 10.9724 25.3928 9.27851 25.2968 7.57227C25.2008 5.59044 24.7487 3.83156 23.2995 2.38234C21.8472 0.930026 20.0914 0.481017 18.1096 0.385022C16.4003 0.289027 14.7064 0.30451 13.0002 0.30451C11.2908 0.30451 9.59699 0.289027 7.89075 0.385022C5.90892 0.481017 4.15004 0.933123 2.70082 2.38234C1.24851 3.83465 0.799499 5.59044 0.703503 7.57227C0.607508 9.2816 0.622991 10.9755 0.622991 12.6817C0.622991 14.3879 0.607508 16.0849 0.703503 17.7911C0.799499 19.7729 1.2516 21.5318 2.70082 22.981C4.15314 24.4333 5.90892 24.8824 7.89075 24.9784C9.60009 25.0743 11.2939 25.0589 13.0002 25.0589C14.7095 25.0589 16.4034 25.0743 18.1096 24.9784C20.0914 24.8824 21.8503 24.4303 23.2995 22.981C24.7518 21.5287 25.2008 19.7729 25.2968 17.7911C25.3959 16.0849 25.3773 14.391 25.3773 12.6817V12.6817ZM12.9971 19.0328C9.48241 19.0328 6.64591 16.1963 6.64591 12.6817C6.64591 9.16703 9.48241 6.33053 12.9971 6.33053C16.5117 6.33053 19.3482 9.16703 19.3482 12.6817C19.3482 16.1963 16.5117 19.0328 12.9971 19.0328ZM19.6084 7.55369C18.7877 7.55369 18.1251 6.89101 18.1251 6.07041C18.1251 5.24981 18.7877 4.58713 19.6084 4.58713C20.429 4.58713 21.0916 5.24981 21.0916 6.07041C21.0919 6.26527 21.0537 6.45826 20.9792 6.63833C20.9048 6.8184 20.7955 6.98201 20.6577 7.11979C20.5199 7.25758 20.3563 7.36683 20.1763 7.44128C19.9962 7.51574 19.8032 7.55393 19.6084 7.55369V7.55369Z" fill="#665F5F"/>
</svg>
