<svg width="26" height="26" viewBox="0 0 26 26" fill="none" xmlns="http://www.w3.org/2000/svg">
<path d="M21.0854 0.303589C22.364 0.303589 23.4573 0.757566 24.3653 1.66552C25.2733 2.57347 25.7272 3.66678 25.7272 4.94544V20.4183C25.7272 21.6969 25.2733 22.7902 24.3653 23.6982C23.4573 24.6061 22.364 25.0601 21.0854 25.0601H9.40017C10.3135 23.7492 10.8937 22.621 11.1409 21.6754C11.2376 21.3101 11.5223 20.1872 11.9951 18.3069C12.2207 18.7259 12.6156 19.0859 13.1797 19.3867C13.7438 19.6876 14.3483 19.838 14.993 19.838C16.9378 19.838 18.5254 19.0456 19.7557 17.4607C20.986 15.8758 21.6011 13.8692 21.6011 11.4408C21.6011 10.5382 21.4131 9.66519 21.037 8.8217C20.661 7.97822 20.1425 7.23144 19.4817 6.58137C18.8209 5.93129 18.0016 5.41016 17.0238 5.01797C16.046 4.62577 14.9876 4.42968 13.8486 4.42968C12.7311 4.42968 11.6862 4.58279 10.7137 4.88903C9.74133 5.19526 8.91933 5.60626 8.24777 6.12202C7.5762 6.63778 6.99866 7.22607 6.51513 7.88689C6.03161 8.54771 5.67434 9.23539 5.44332 9.94993C5.2123 10.6645 5.09679 11.3763 5.09679 12.0855C5.09679 13.1815 5.309 14.1485 5.73343 14.9867C6.15786 15.8248 6.78376 16.4157 7.61113 16.7596C7.75081 16.8133 7.87706 16.8133 7.98989 16.7596C8.10271 16.7059 8.18061 16.6038 8.22359 16.4534C8.33104 15.9806 8.41163 15.6528 8.46535 15.4702C8.52982 15.223 8.47073 14.9974 8.28806 14.7932C7.75081 14.1271 7.48219 13.3212 7.48219 12.3756C7.48219 10.7639 8.03824 9.38582 9.15035 8.24147C10.2625 7.09713 11.7157 6.52496 13.5101 6.52496C15.1111 6.52496 16.3603 6.96013 17.2575 7.83048C18.1547 8.70082 18.6033 9.82905 18.6033 11.2152C18.6033 13.0203 18.2406 14.5569 17.5153 15.8248C16.7901 17.0927 15.8579 17.7266 14.719 17.7266C14.0743 17.7266 13.5531 17.4929 13.1556 17.0255C12.758 16.5581 12.6344 16.0021 12.7849 15.3574C12.8708 14.992 13.0132 14.4951 13.212 13.8665C13.4107 13.2379 13.5692 12.6899 13.6874 12.2225C13.8056 11.7551 13.8647 11.3548 13.8647 11.0217C13.8647 10.4952 13.7224 10.0574 13.4376 9.70817C13.1529 9.35895 12.7472 9.18435 12.2207 9.18435C11.5653 9.18435 11.0092 9.48789 10.5526 10.095C10.0959 10.7021 9.86758 11.4515 9.86758 12.3434C9.86758 13.117 9.99652 13.7671 10.2544 14.2936L8.67488 20.9663C8.417 22.0408 8.37939 23.4054 8.56206 25.0601H5.61255C4.33389 25.0601 3.24059 24.6061 2.33263 23.6982C1.42468 22.7902 0.970703 21.6969 0.970703 20.4183V4.94544C0.970703 3.66678 1.42468 2.57347 2.33263 1.66552C3.24059 0.757566 4.33389 0.303589 5.61255 0.303589H21.0854Z" fill="#665F5F"/>
</svg>
